<?xml version="1.0" encoding="utf-8"?>
<!-- Generator: Adobe Illustrator 21.0.0, SVG Export Plug-In . SVG Version: 6.00 Build 0)  -->
<svg version="1.1" id="Layer_1" xmlns="http://www.w3.org/2000/svg" xmlns:xlink="http://www.w3.org/1999/xlink" x="0px" y="0px"
	 viewBox="0 0 870 120" style="enable-background:new 0 0 870 120;" xml:space="preserve">
<style type="text/css">
	.st0{display:none;}
	.st1{display:inline;}
	.st2{fill:#FFFFFF;}
	.st3{fill:#330000;}
</style>
<g class="st0">
	<g class="st1">
		<path d="M362.1-190.2c-6.3,0-12.4,0.3-18.4-0.1c-4.4-0.3-8.9-1.2-13.1-2.7c-7-2.5-9.7-8.1-7.9-15.4c1.6-6.7,5.6-12,9.8-17.2
			c2.5-3.1,4.5-6.5,6.9-9.7c1.7-2.3,3.4-4.7,5.5-6.5c8.6-7.4,18.5-12.2,30-13.5c1.7-0.2,3.4-1.2,5-2.1c10.6-6.4,21.6-11.7,34.3-12.4
			c6.4-0.4,12.5,0.9,18.3,3.8c1.5,0.8,3.4,0.9,5.2,0.9c6,0.2,12.2-0.2,18.1,0.6c2.9,0.4,6.2,2.3,8.2,4.5
			c5.1,5.5,10.1,11.3,14.3,17.6c9,13.5,7.3,26-5.3,36.2c-6.4,5.1-13.8,9-20.9,13.1c-1.9,1.1-2.9,2-2.9,4.3c0,14-0.3,28-0.2,42
			c0,2.9-0.9,4.2-3.4,5c-26.3,8.9-52.3,8.4-77.9-2.8c-3.6-1.6-4.6-3.8-4.5-7.7c0.1-11.9-0.3-23.9-0.5-35.8
			C362.5-188.7,362.2-189.5,362.1-190.2z M467.3-223.5c0.2-7.6,0.9-14.8,0.6-21.9c-0.4-8.8-4.8-14.2-13.5-15.9
			c-5.7-1.1-11.6-0.7-17.4-1.1c-1.7-0.1-3.5-0.2-4.9-0.9c-4.8-2.5-9.9-3.7-15.3-3.4c-12.8,0.6-24.4,5.1-35.3,11.6
			c-1.2,0.7-2.7,1.3-4.1,1.5c-10.7,1.7-20.7,5.1-28.9,12.6c-5.6,5.1-9.5,10.9-8.1,19.2c-0.8-1.7-1.6-3.3-2.4-5.1
			c-6.5,5.6-11.4,11.8-12.2,20.4c-0.5,5.6,1.6,9.1,6.9,10.9c8.8,3,17.9,2.3,27,1.8c0.5,0,1-0.9,1.5-1.3c-0.5-0.4-0.9-1-1.5-1.1
			c-1.7-0.3-3.4-0.3-5.1-0.7c-4.8-1.1-9.5-2.4-14.3-3.6c0.1-0.2,0.1-0.3,0.2-0.5c7.2,0.9,14.3,1.7,21.5,2.6c0.1-0.4,0.2-0.7,0.3-1.1
			c-6.4-3-12.5-6.3-15.4-13.3c1.8,1.2,3.1,3,4.7,4.5c4.8,4.3,10.6,7.9,16.9,7.6c7.3-0.3,14.5-2.7,22.4-4.4
			c-2.7-11.1-5.4-21.9-8.2-33.3c0.7,1.6,1.3,2.6,1.6,3.6c2.6,8.7,5.2,17.4,7.6,26.1c0.7,2.5,1.6,3.7,4.4,3.5
			c5-0.4,10.1-0.6,15.1-0.6c2.9,0,5.2-1.1,6.7-3.4c2.2-3.3,4.4-6.7,6.1-10.3c3.8-8.1,7.2-16.4,10.7-24.3c-0.8,14.2-8.5,26-15.1,37.9
			c7.7,1.5,15.3,2.8,22.7,4.6c2.8,0.6,5,0.5,7-1.4c4.3-4,8.4-8.1,13.3-12.8c-4.7,6.7-9,12.9-13.3,19c0.3,0.2,0.6,0.5,1,0.7
			c10.4-4.5,20-10.3,26.4-20c6.4-9.5,3.3-24-7-33.1C470.2-240.4,470-231.9,467.3-223.5z M446.3-172c0.1,0,0.3,0,0.4,0
			c0-7.3-0.3-14.7,0.1-22c0.2-3.5-0.9-4.5-4-5.3c-17.4-4.7-35.1-5.4-52.9-2.9c-7.7,1.1-15.2,3.4-22.7,5.3c-1.4,0.4-2.8,0.8-2.7,3.2
			c0.7,14.2,1.1,28.4,1.5,42.6c0.1,2,0.5,3.1,2.4,3.9c24.7,10.1,49.7,12.3,75.1,2.7c2.3-0.9,2.8-2.2,2.8-4.4
			C446.2-156.6,446.3-164.3,446.3-172z"/>
		<path d="M409.4-131.5c-14.8,0-29.4-3.1-43.5-9.3c-6.2-2.7-7-7.6-6.9-11.5c0.1-8.8-0.1-17.9-0.3-26.6c-0.1-2.4-0.1-4.9-0.2-7.3
			c-0.7,0-1.3,0-2,0c-4.3,0.1-8.7,0.1-13.1-0.2c-4.9-0.4-9.8-1.4-14.1-2.9c-8.8-3.1-12.7-10.7-10.5-20.1c1.8-7.6,6.2-13.4,10.6-18.8
			c1.3-1.6,2.5-3.4,3.8-5.3c0.9-1.4,1.9-2.9,3-4.3l0.5-0.7c1.7-2.2,3.4-4.6,5.7-6.5c9.6-8.3,20.5-13.2,32.2-14.4
			c0.9-0.1,2.3-1,3.3-1.6c9.8-5.9,21.8-12.1,36.1-13c7.1-0.4,13.9,1,20.3,4.2c0.8,0.4,2.5,0.5,3.5,0.5c2,0.1,4.1,0.1,6.1,0.1
			c4.1,0,8.2,0,12.4,0.6c3.7,0.5,7.9,2.8,10.7,5.8c4.4,4.7,10,11.1,14.7,18.1c10.2,15.3,8,30.1-6.2,41.6c-5.3,4.3-11.3,7.7-17,10.9
			c-1.5,0.8-2.9,1.7-4.4,2.5c-0.5,0.3-0.8,0.5-0.9,0.6c0,0.1,0,0.2,0,0.3c0,5.9-0.1,12-0.1,17.8c-0.1,7.9-0.2,16.1-0.1,24.2
			c0,4.5-2,7.4-6.2,8.8C434.2-133.6,421.7-131.5,409.4-131.5z M370-150.9c25.5,10.4,49,11.3,72.1,2.6c0.1,0,0.1-0.1,0.2-0.1
			c0-0.1,0-0.3,0-0.5c-0.1-5.6-0.1-11.3,0-16.8c0-2.1,0-4.2,0-6.3v-4l0.4,0c0-0.8,0-1.6,0-2.4c-0.1-5.2-0.1-10.6,0.2-15.9
			c0-0.4,0-0.7,0-0.9c-0.2-0.1-0.5-0.2-1-0.3c-16.2-4.3-33.5-5.3-51.3-2.8c-5.5,0.8-10.8,2.2-16.4,3.7c-1.8,0.5-3.6,1-5.5,1.4
			c0.6,12.3,1,25.6,1.4,41.9C370-151.1,370-151,370-150.9z M336.6-220.3c-4.3,4.5-6.5,9-7,14.1c-0.4,3.8,0.7,5.5,4.2,6.7
			c0.5,0.2,0.9,0.3,1.4,0.4l2.6-6.5l6.1,0.7L336.6-220.3z M347.2-204.5l0.6,0.1c-0.2-0.2-0.5-0.5-0.7-0.7L347.2-204.5z M344.8-219.2
			l4.3,2.8c1.5,1,2.6,2.2,3.6,3.3c0.5,0.6,1,1.1,1.5,1.5c5.3,4.6,9.9,6.8,14.1,6.6c4.7-0.2,9.4-1.4,14.5-2.6
			c1.1-0.3,2.1-0.5,3.2-0.8l-7.2-29.3l7.5-2.6c0.2,0.5,0.4,0.9,0.6,1.3c0.5,0.9,0.9,1.8,1.2,2.8l0.8,2.8c2.3,7.6,4.6,15.5,6.7,23.3
			c0.1,0.2,0.1,0.4,0.2,0.5c0,0,0,0,0.1,0c4.9-0.4,10.1-0.6,15.5-0.6c2.1,0,2.9-0.8,3.4-1.6l0.2-0.2c2.1-3.3,4.2-6.3,5.7-9.6
			c2.7-5.7,5.2-11.6,7.6-17.3c1-2.3,2-4.7,3-7l5.5-12.7c0,0-0.1,0-0.1,0l-0.3,0c-1.8-0.1-4.1-0.3-6.2-1.3c-4.3-2.2-8.8-3.2-13.3-3
			c-10.9,0.5-21.8,4.1-33.4,11c-1.2,0.7-3.2,1.7-5.5,2.1c-11.7,1.9-20.3,5.5-26.9,11.6c-5.8,5.3-7.8,9.9-6.9,15.6L344.8-219.2z
			 M426-209c0.4,0.1,0.7,0.1,1.1,0.2c5.4,1,10.9,2.1,16.3,3.3c2.3,0.5,2.8,0.1,3.3-0.4c2.9-2.8,5.9-5.6,9-8.7
			c1.4-1.3,2.8-2.7,4.2-4.1l3,2.6l0.2-7.6c0.1-2.4,0.2-4.7,0.3-7c0.3-5.1,0.5-9.9,0.3-14.6c-0.3-7-3.5-10.8-10.3-12.1
			c-3.4-0.7-7-0.7-10.8-0.8c-1,0-2,0-3.1-0.1l-0.8,14.4C438.2-230.6,432.1-219.6,426-209z M462.8-208.8l-1.9,2.8
			c0.6-0.4,1.3-0.9,1.9-1.3L462.8-208.8z M395.4-209.4L395.4-209.4L395.4-209.4z M473.8-237.5c-0.3,5.3-1.1,10.2-2.7,15.2l-3.6,11.1
			c2.4-2.2,4.4-4.6,6.1-7.1C477.1-223.6,477-230.9,473.8-237.5z"/>
	</g>
	<g class="st1">
		<path class="st2" d="M467.9-226.3c3-3.7,2.9-14.8,2.6-23.6c10.2,9.2,13.4,23.6,7,33.1c-6.5,9.7-16.2,15.6-26.7,20.1
			c-0.4-0.4-0.3-0.4-0.7-0.8c4.3-6.1,8.6-12.2,13.3-19c-4.8,4.7-9,8.8-13.3,12.8c-2,1.9-4.2,2-7,1.4c-7.4-1.8-15-3-22.7-4.6
			c6.6-11.9,14.4-23.7,15.1-37.9c-3.5,8-6.9,16.2-10.7,24.3c-1.7,3.6-3.9,7-6.1,10.3c-1.9,2.9-5,3.8-9.1,3.2
			c-3.6-0.6-7.2-0.4-10.7,0.5c-4.5,1.1-5.7-0.1-6.5-3.1c-2.4-8.7-5-17.4-7.6-26.1c-0.3-1.1-0.9-2.1-1.6-3.6
			c2.8,11.4,5.5,22.2,8.2,33.3c-7.9,1.6-15.1,4-22.4,4.4c-6.3,0.3-12.1-3.4-16.9-7.6c-1.6-1.4-2.9-3.2-4.7-4.5
			c2.9,7,9,10.2,15.4,13.3c-0.2,0.6-0.1,0.5-0.3,1.1c-7.2-0.9-14.3-1.7-21.5-2.6c-0.1,0.3,0,0.2-0.1,0.5c4.7,1.2,9.4,2.5,14.2,3.6
			c1.7,0.4,3.4,0.4,5.1,0.7c0.5,0.1,1,0.7,1.5,1.1c-0.5,0.5-1,1.3-1.5,1.3c-9.1,0.6-18.2,1.2-27-1.8c-5.2-1.8-7.4-5.3-6.9-10.9
			c0.8-8.6,5.7-14.8,12.2-20.4l2.4,5.1c-2.4-7.4,2.6-14.1,8.1-19.2c8.2-7.5,18.2-10.9,28.9-12.6c1.4-0.2,2.8-0.8,4.1-1.5
			c10.9-6.5,22.5-10.9,35.3-11.6c5.3-0.3,10.4,1,15.3,3.4c1.4,0.7,3.3,0.8,4.9,0.9c5.8,0.4,11.8-0.1,17.4,1.1
			c8.7,1.7,13.2,7.1,13.5,15.9C468.8-239,468.9-234.1,467.9-226.3z"/>
		<path d="M348.9-191.7c-5.5,0-11-0.5-16.5-2.4c-6.3-2.1-9.2-6.7-8.5-13.5c0.8-8.2,4.8-15,13.1-22l1.6-1.4c1.3-4.1,4.2-8.4,8.9-12.6
			c7.6-6.9,17.2-11.1,30.2-13.2c1-0.2,2.1-0.6,3.2-1.2c12.5-7.4,24.4-11.3,36.4-11.9c5.6-0.3,11.2,1,16.5,3.7
			c0.9,0.5,2.3,0.5,3.7,0.6l0.3,0c1.9,0.1,3.9,0.2,5.8,0.2c3.9,0.1,8,0.1,11.9,0.9c6.7,1.3,11.4,4.7,13.7,10l3,2.7
			c11.2,10,14.4,26,7.4,36.4c-5.9,8.8-14.5,15.3-27.8,21l-1.7,0.7l-3.1-3.8l1.8-2.5c-2.2,0.8-4.5,0.5-6.1,0.1
			c-5.3-1.2-10.5-2.2-16-3.3c-2.2-0.4-4.4-0.8-6.6-1.3l-3.4-0.7l0,0c-1.8,0.8-4.2,1.1-7.3,0.7c-3.2-0.5-6.5-0.4-9.8,0.4
			c-2.4,0.6-4.2,0.6-5.7,0l-1.9,0.4c-2.4,0.5-4.8,1.1-7.1,1.6c-5.4,1.3-10.5,2.5-15.8,2.8c-1.3,0.1-2.7,0-4-0.3l-0.7,2.5l1,0.8
			l-2.1,2c-0.1,0.1-0.2,0.2-0.3,0.3c-0.5,0.6-1.4,1.6-2.8,1.7l-0.4,0C356.3-191.9,352.6-191.7,348.9-191.7z M337.7-223.5
			c-5.5,5.3-8.3,10.5-8.9,16.5c-0.4,4.5,1.1,6.9,5.2,8.3c5.1,1.7,10.2,2.2,15.5,2.1c-1.8-0.4-3.5-0.9-5.2-1.3
			c-1.3-0.3-2.6-0.7-3.9-1l-2.3-0.6l1-5.1l14.2,1.7c-3.4-2.4-6.3-5.5-8.1-9.8l-3.1-7.6l6.8,4.5c1.4,0.9,2.4,2,3.3,3
			c0.6,0.6,1.1,1.2,1.6,1.6c5.7,5,10.5,7.2,15.1,7c4.8-0.2,9.7-1.4,14.8-2.6c1.5-0.4,3.1-0.8,4.7-1.1l-7.6-30.8l4.7-1.6
			c0.2,0.5,0.5,1,0.7,1.4c0.4,0.9,0.8,1.7,1.1,2.6l0.8,2.9c2.2,7.6,4.6,15.5,6.7,23.3c0.5,1.8,0.6,2,3.5,1.3c4-0.9,7.9-1.1,11.7-0.5
			c4.2,0.7,5.7-0.8,6.6-2.1l0.2-0.3c2.1-3.2,4.2-6.4,5.8-9.8c2.7-5.7,5.2-11.6,7.6-17.3c1-2.3,2-4.7,3-7l5.5-12.7l-0.7,13.8
			c-0.7,13.1-6.9,24.1-13,34.7c-0.2,0.4-0.5,0.9-0.7,1.3c1.1,0.2,2.1,0.4,3.2,0.6c5.3,1,10.9,2.1,16.2,3.3c2.6,0.6,3.7,0.2,4.7-0.8
			c3-2.8,6-5.7,9.1-8.8l4.1-4l3.8,3.2l-9.1,13c8.7-4.5,14.7-9.7,19.1-16.1c4.7-6.9,3.5-17.1-2.3-25.1c0,8.9-0.7,15.4-3.3,18.6
			l-5.4,6.6l1-8.5c0.9-7.4,0.9-12,0.6-19.5c-0.3-7.7-4-12-11.5-13.5c-3.5-0.7-7.2-0.8-11-0.8c-2,0-4-0.1-6.1-0.2l-0.3,0
			c-1.8-0.1-3.8-0.2-5.6-1.2c-4.6-2.3-9.3-3.4-14-3.2c-11.2,0.5-22.3,4.2-34.1,11.2c-1.1,0.7-2.9,1.5-4.9,1.9
			c-12,1.9-20.8,5.7-27.6,12c-6.7,6.1-9.1,11.5-7.5,16.5l-4.6,1.9L337.7-223.5z"/>
	</g>
	<g class="st1">
		<path class="st2" d="M446.3-172c0,7.7-0.1,15.4,0,23.1c0,2.2-0.5,3.5-2.8,4.4c-25.4,9.6-50.4,7.4-75.1-2.7
			c-1.9-0.8-2.3-1.9-2.4-3.9c-0.4-14.2-0.8-28.4-1.5-42.6c-0.1-2.4,1.2-2.8,2.7-3.2c7.5-1.9,15.1-4.2,22.7-5.3
			c17.8-2.5,35.5-1.8,52.9,2.9c3,0.8,4.2,1.9,4,5.3c-0.4,7.3-0.1,14.7-0.1,22C446.6-172,446.4-172,446.3-172z"/>
	</g>
</g>
<path class="st0" d="M74.9-207.6l23.8-44.6h11.2l-29.7,54.5v34.6H69.7v-34.1l-29.7-55h11.3L74.9-207.6z"/>
<path class="st0" d="M178.3-196.5c0,10.9-2.7,19.4-8.2,25.5c-5.5,6.1-13.1,9.2-22.7,9.2c-6,0-11.3-1.4-15.9-4.2s-8.2-6.8-10.7-12.1
	c-2.5-5.2-3.8-11.4-3.8-18.4c0-10.9,2.7-19.4,8.2-25.4c5.4-6.1,13-9.1,22.7-9.1c9.3,0,16.8,3.1,22.3,9.3
	C175.5-215.5,178.3-207.1,178.3-196.5z M127.4-196.5c0,8.5,1.7,15,5.1,19.5s8.4,6.7,15.1,6.7c6.6,0,11.6-2.2,15.1-6.7
	c3.4-4.4,5.1-11,5.1-19.5c0-8.5-1.7-14.9-5.1-19.4c-3.4-4.4-8.5-6.6-15.2-6.6c-6.6,0-11.6,2.2-15,6.5
	C129.1-211.6,127.4-205.1,127.4-196.5z"/>
<path class="st0" d="M205.5-229.8v43.3c0,5.4,1.2,9.5,3.7,12.2c2.5,2.7,6.4,4,11.6,4c7,0,12.1-1.9,15.3-5.7
	c3.2-3.8,4.8-10.1,4.8-18.7v-35.1h10.1v66.8h-8.3l-1.5-9h-0.5c-2.1,3.3-4.9,5.8-8.6,7.6c-3.7,1.7-7.9,2.6-12.6,2.6
	c-8.1,0-14.2-1.9-18.3-5.8c-4-3.9-6.1-10-6.1-18.5v-43.7H205.5z"/>
<path class="st0" d="M303.1-231c3,0,5.6,0.2,8,0.7l-1.4,9.4c-2.8-0.6-5.2-0.9-7.3-0.9c-5.4,0-10,2.2-13.9,6.6
	c-3.8,4.4-5.8,9.9-5.8,16.4v35.8h-10.1v-66.8h8.3l1.2,12.4h0.5c2.5-4.3,5.5-7.7,9-10.1C295.1-229.9,298.9-231,303.1-231z"/>
<path class="st0" d="M514.6-200.1v37.1h-10.4v-89.1h24.4c10.9,0,19,2.1,24.2,6.3c5.2,4.2,7.8,10.5,7.8,18.9c0,11.8-6,19.7-17.9,23.9
	l24.2,40h-12.3l-21.6-37.1H514.6z M514.6-209h14.2c7.3,0,12.7-1.5,16.1-4.4c3.4-2.9,5.1-7.3,5.1-13.1c0-5.9-1.7-10.1-5.2-12.7
	c-3.5-2.6-9.1-3.9-16.7-3.9h-13.5V-209z"/>
<path class="st0" d="M608.1-161.8c-9.9,0-17.7-3-23.4-9c-5.7-6-8.6-14.4-8.6-25c0-10.8,2.7-19.3,8-25.7c5.3-6.3,12.4-9.5,21.4-9.5
	c8.4,0,15,2.8,19.9,8.3c4.9,5.5,7.3,12.8,7.3,21.8v6.4h-46c0.2,7.8,2.2,13.8,5.9,17.9c3.8,4.1,9.1,6.1,15.9,6.1
	c7.2,0,14.3-1.5,21.3-4.5v9c-3.6,1.5-7,2.7-10.1,3.3C616.4-162.1,612.6-161.8,608.1-161.8z M605.3-222.6c-5.4,0-9.6,1.7-12.8,5.2
	c-3.2,3.5-5.1,8.3-5.6,14.5h34.9c0-6.4-1.4-11.3-4.3-14.7C614.7-220.9,610.6-222.6,605.3-222.6z"/>
<path class="st0" d="M676.6-161.8c-9.7,0-17.2-3-22.5-8.9c-5.3-6-8-14.4-8-25.3c0-11.2,2.7-19.8,8.1-25.9c5.4-6.1,13.1-9.1,23-9.1
	c3.2,0,6.4,0.3,9.6,1c3.2,0.7,5.7,1.5,7.6,2.4l-3.1,8.6c-2.2-0.9-4.7-1.6-7.3-2.2c-2.6-0.6-5-0.9-7-0.9c-13.6,0-20.4,8.7-20.4,26
	c0,8.2,1.7,14.5,5,18.9c3.3,4.4,8.2,6.6,14.7,6.6c5.6,0,11.3-1.2,17.1-3.6v9C689-163,683.4-161.8,676.6-161.8z"/>
<path class="st0" d="M708.4-247.9c0-2.3,0.6-4,1.7-5.1c1.1-1.1,2.6-1.6,4.3-1.6c1.6,0,3,0.5,4.2,1.6s1.8,2.8,1.8,5.1
	c0,2.3-0.6,4-1.8,5.1c-1.2,1.1-2.6,1.7-4.2,1.7c-1.7,0-3.1-0.6-4.3-1.7C709-244,708.4-245.6,708.4-247.9z M719.4-163h-10.1v-66.8
	h10.1V-163z"/>
<path class="st0" d="M772-161.8c-4.3,0-8.3-0.8-11.9-2.4s-6.6-4.1-9-7.4h-0.7c0.5,3.9,0.7,7.6,0.7,11.1v27.5h-10.1v-96.8h8.2
	l1.4,9.1h0.5c2.6-3.7,5.6-6.3,9.1-7.9c3.5-1.6,7.4-2.4,11.9-2.4c8.9,0,15.7,3,20.5,9.1c4.8,6.1,7.2,14.5,7.2,25.5
	c0,11-2.4,19.5-7.3,25.6C787.4-164.8,780.6-161.8,772-161.8z M770.5-222.4c-6.8,0-11.8,1.9-14.8,5.7c-3,3.8-4.6,9.8-4.7,18v2.3
	c0,9.4,1.6,16.1,4.7,20.1c3.1,4,8.1,6.1,15.1,6.1c5.8,0,10.3-2.3,13.6-7c3.3-4.7,4.9-11.1,4.9-19.3c0-8.3-1.6-14.7-4.9-19.2
	C781-220.2,776.4-222.4,770.5-222.4z"/>
<path class="st0" d="M845.6-161.8c-9.9,0-17.7-3-23.4-9c-5.7-6-8.6-14.4-8.6-25c0-10.8,2.7-19.3,8-25.7c5.3-6.3,12.4-9.5,21.4-9.5
	c8.4,0,15,2.8,19.9,8.3c4.9,5.5,7.3,12.8,7.3,21.8v6.4h-46c0.2,7.8,2.2,13.8,5.9,17.9c3.8,4.1,9.1,6.1,15.9,6.1
	c7.2,0,14.3-1.5,21.3-4.5v9c-3.6,1.5-7,2.7-10.1,3.3C853.9-162.1,850.1-161.8,845.6-161.8z M842.8-222.6c-5.4,0-9.6,1.7-12.8,5.2
	c-3.2,3.5-5.1,8.3-5.6,14.5h34.9c0-6.4-1.4-11.3-4.3-14.7C852.2-220.9,848.1-222.6,842.8-222.6z"/>
<path class="st3" d="M0.5,61.6c1-0.1,2-0.3,2.9-0.3c5.8-0.1,234.6-0.1,240.4-0.2c18.1-0.1,36.2-0.3,54.3-0.4
	c23.4-0.1,46.8-0.1,70.1-0.4c8.2-0.1,16.4-0.8,24.5-1.5c4-0.3,8-1,12-1.6c2.7-0.4,4.9,0.6,6.9,2.2c2,1.7,4.7,1.4,6.1-0.7
	c1.1-1.7,3.2-1.8,4.4-0.2c2,2.7,4.8,2.7,6.8,0.1c1.3-1.7,3-1.8,4.3,0.1c1,1.5,2.2,1.8,3.8,1.7c1.2,0,2-0.4,2.7-1.4
	c1.6-2.2,3.1-2.2,4.7,0.1c1.2,1.7,5.2,2.1,6.7,0.4c1.5-1.8,3.2-2.3,5.4-2.1c3,0.3,6,0.4,9,0.8c20.2,2.9,40.5,2.2,60.8,2.3
	c29.7,0.1,59.4,0.2,89.1,0.4c10.1,0.1,242.2,0.2,252.4,0.4c1.1,0,2.2,0.2,3.3,0.3c0,0.2,0,0.3,0,0.5c-0.6,0-1.2,0.1-1.7,0.1
	c-44.3,0.3-310.6,0.6-354.9,0.9c-8.7,0.1-17.4-0.2-26.1,0.2c-9.5,0.4-18.9,1.4-28.4,2.2c-1.2,0.1-2.4,0.2-3.6,0.4
	c-2,0.3-3.7-0.2-5.1-1.7c-1.7-1.8-3.8-1-5.8-0.9c-0.4,0-0.8,0.7-1.1,1.2c-1.1,1.8-2.8,2.1-4,0.4c-1.4-2.1-3.4-1.8-5.3-1.6
	c-0.6,0.1-1.2,0.8-1.6,1.3c-1.7,1.9-2.8,1.9-4.4-0.1c-1.6-1.9-4.7-1.9-6.4,0c-1.9,2.1-3.3,2-4.9-0.3c-0.9-1.3-4.3-1.5-5.6-0.4
	c-2.3,2-5,2.8-8,2.4c-13.3-1.7-26.6-3.3-40.1-3.2c-31.4,0.2-62.8-0.1-94.2-0.2c-11.1,0-22.2-0.2-33.3-0.3
	c-3.9,0-230.7-0.2-234.6-0.3c-0.4,0-0.8-0.1-1.2-0.2C0.5,61.9,0.5,61.8,0.5,61.6z"/>
<path class="st0" d="M3.5-89.5c2-0.2,4-0.6,6-0.6c11.8-0.2,23.6-0.3,35.4-0.3c36.8-0.3,73.6-0.5,110.4-0.7
	c47.6-0.3,95.1-0.2,142.7-0.8c16.6-0.2,33.3-1.7,49.9-3c8.2-0.6,16.3-2,24.3-3.3c5.6-0.9,10,1.1,14,4.5c4,3.4,9.5,2.9,12.3-1.3
	c2.3-3.5,6.4-3.6,9-0.3c4.2,5.4,9.9,5.5,13.8,0.1c2.6-3.5,6.1-3.7,8.8,0.2c2,3,4.4,3.6,7.6,3.4c2.4-0.1,4-0.9,5.5-2.9
	c3.3-4.6,6.3-4.4,9.5,0.1c2.5,3.5,10.6,4.2,13.6,0.7c3-3.6,6.6-4.8,11-4.3c6.1,0.6,12.2,0.8,18.3,1.6c41.1,5.8,82.4,4.5,123.7,4.7
	c60.4,0.3,120.8,0.5,181.2,0.8c20.6,0.1,41.2,0.4,61.8,0.7c2.2,0,4.5,0.4,6.7,0.6c0,0.3,0,0.7,0,1c-1.2,0.1-2.4,0.2-3.6,0.2
	c-90.2,0.6-180.3,1.2-270.5,1.7c-17.7,0.1-35.4-0.3-53.1,0.5c-19.3,0.9-38.5,2.9-57.7,4.5c-2.4,0.2-4.8,0.4-7.3,0.7
	c-4,0.5-7.5-0.4-10.4-3.4c-3.4-3.6-7.8-2.1-11.8-1.8c-0.8,0.1-1.7,1.4-2.3,2.4c-2.3,3.6-5.8,4.2-8.1,0.7c-2.9-4.4-6.8-3.7-10.8-3.3
	c-1.2,0.1-2.4,1.6-3.3,2.7c-3.5,3.9-5.7,3.8-9-0.2c-3.2-3.9-9.6-4-13.1-0.1c-3.9,4.3-6.7,4.1-10-0.5c-1.8-2.6-8.8-3.1-11.3-0.9
	c-4.7,4-10.1,5.7-16.3,4.9c-27.1-3.6-54.1-6.7-81.5-6.5c-63.9,0.4-127.8-0.1-191.7-0.4c-22.6-0.1-45.1-0.4-67.7-0.6
	c-7.9-0.1-15.7-0.3-23.6-0.6c-0.8,0-1.7-0.2-2.5-0.4C3.5-88.9,3.5-89.2,3.5-89.5z"/>
</svg>
