<?xml version="1.0" encoding="utf-8"?>
<!-- Generator: Adobe Illustrator 21.0.0, SVG Export Plug-In . SVG Version: 6.00 Build 0)  -->
<svg version="1.1" id="Layer_1" xmlns="http://www.w3.org/2000/svg" xmlns:xlink="http://www.w3.org/1999/xlink" x="0px" y="0px"
	 viewBox="0 0 100 30" style="enable-background:new 0 0 100 30;" xml:space="preserve">
<style type="text/css">
	.st0{fill:#333333;}
</style>
<g>
	<path class="st0" d="M5.7,13.9l3.9-7.3h1.8l-4.9,8.9v5.7H4.9v-5.6L0,6.6h1.9L5.7,13.9z"/>
	<path class="st0" d="M20.8,15.7c0,1.8-0.4,3.2-1.3,4.2c-0.9,1-2.1,1.5-3.7,1.5c-1,0-1.8-0.2-2.6-0.7c-0.8-0.5-1.3-1.1-1.8-2
		s-0.6-1.9-0.6-3c0-1.8,0.4-3.2,1.3-4.2s2.1-1.5,3.7-1.5c1.5,0,2.7,0.5,3.6,1.5C20.4,12.6,20.8,14,20.8,15.7z M12.5,15.7
		c0,1.4,0.3,2.5,0.8,3.2c0.6,0.7,1.4,1.1,2.5,1.1c1.1,0,1.9-0.4,2.5-1.1c0.6-0.7,0.8-1.8,0.8-3.2c0-1.4-0.3-2.4-0.8-3.2
		c-0.6-0.7-1.4-1.1-2.5-1.1c-1.1,0-1.9,0.4-2.5,1.1C12.7,13.3,12.5,14.3,12.5,15.7z"/>
	<path class="st0" d="M24.4,10.3v7.1c0,0.9,0.2,1.6,0.6,2c0.4,0.4,1,0.7,1.9,0.7c1.1,0,2-0.3,2.5-0.9c0.5-0.6,0.8-1.6,0.8-3.1v-5.7
		h1.7v10.9h-1.4l-0.2-1.5h-0.1c-0.3,0.5-0.8,1-1.4,1.2s-1.3,0.4-2.1,0.4c-1.3,0-2.3-0.3-3-0.9c-0.7-0.6-1-1.6-1-3v-7.2H24.4z"/>
	<path class="st0" d="M39.6,10.1c0.5,0,0.9,0,1.3,0.1l-0.2,1.5c-0.5-0.1-0.9-0.1-1.2-0.1c-0.9,0-1.6,0.4-2.3,1.1
		c-0.6,0.7-0.9,1.6-0.9,2.7v5.9h-1.7V10.3h1.4l0.2,2h0.1c0.4-0.7,0.9-1.3,1.5-1.6S38.9,10.1,39.6,10.1z"/>
	<path class="st0" d="M44,15.2v6.1h-1.7V6.6h4c1.8,0,3.1,0.3,4,1c0.9,0.7,1.3,1.7,1.3,3.1c0,1.9-1,3.2-2.9,3.9l4,6.6h-2l-3.5-6.1H44
		z M44,13.7h2.3c1.2,0,2.1-0.2,2.6-0.7c0.6-0.5,0.8-1.2,0.8-2.1c0-1-0.3-1.7-0.9-2.1s-1.5-0.6-2.7-0.6H44V13.7z"/>
	<path class="st0" d="M58.5,21.4c-1.6,0-2.9-0.5-3.8-1.5s-1.4-2.4-1.4-4.1c0-1.8,0.4-3.2,1.3-4.2s2-1.6,3.5-1.6
		c1.4,0,2.5,0.5,3.3,1.4c0.8,0.9,1.2,2.1,1.2,3.6v1H55c0,1.3,0.4,2.3,1,2.9c0.6,0.7,1.5,1,2.6,1c1.2,0,2.3-0.2,3.5-0.7v1.5
		c-0.6,0.3-1.1,0.4-1.7,0.5C59.9,21.4,59.2,21.4,58.5,21.4z M58.1,11.5c-0.9,0-1.6,0.3-2.1,0.9c-0.5,0.6-0.8,1.4-0.9,2.4h5.7
		c0-1-0.2-1.8-0.7-2.4C59.6,11.8,58.9,11.5,58.1,11.5z"/>
	<path class="st0" d="M68.9,21.4c-1.6,0-2.8-0.5-3.7-1.5s-1.3-2.4-1.3-4.1c0-1.8,0.4-3.2,1.3-4.2c0.9-1,2.1-1.5,3.8-1.5
		c0.5,0,1.1,0.1,1.6,0.2s0.9,0.2,1.2,0.4l-0.5,1.4c-0.4-0.1-0.8-0.3-1.2-0.4c-0.4-0.1-0.8-0.1-1.1-0.1c-2.2,0-3.3,1.4-3.3,4.3
		c0,1.3,0.3,2.4,0.8,3.1s1.3,1.1,2.4,1.1c0.9,0,1.8-0.2,2.8-0.6v1.5C70.9,21.2,70,21.4,68.9,21.4z"/>
	<path class="st0" d="M74.3,7.3c0-0.4,0.1-0.7,0.3-0.8c0.2-0.2,0.4-0.3,0.7-0.3c0.3,0,0.5,0.1,0.7,0.3c0.2,0.2,0.3,0.5,0.3,0.8
		S76.1,8,75.9,8.2c-0.2,0.2-0.4,0.3-0.7,0.3c-0.3,0-0.5-0.1-0.7-0.3C74.4,8,74.3,7.7,74.3,7.3z M76.1,21.2h-1.7V10.3h1.7V21.2z"/>
	<path class="st0" d="M83.8,21.4c-0.7,0-1.4-0.1-2-0.4s-1.1-0.7-1.5-1.2h-0.1c0.1,0.6,0.1,1.2,0.1,1.8v4.5h-1.7V10.3h1.3l0.2,1.5
		h0.1c0.4-0.6,0.9-1,1.5-1.3s1.2-0.4,1.9-0.4c1.5,0,2.6,0.5,3.4,1.5c0.8,1,1.2,2.4,1.2,4.2c0,1.8-0.4,3.2-1.2,4.2
		C86.4,20.9,85.3,21.4,83.8,21.4z M83.6,11.5c-1.1,0-1.9,0.3-2.4,0.9c-0.5,0.6-0.8,1.6-0.8,3v0.4c0,1.5,0.3,2.6,0.8,3.3s1.3,1,2.5,1
		c0.9,0,1.7-0.4,2.2-1.1c0.5-0.8,0.8-1.8,0.8-3.2c0-1.4-0.3-2.4-0.8-3.1C85.3,11.9,84.6,11.5,83.6,11.5z"/>
	<path class="st0" d="M95,21.4c-1.6,0-2.9-0.5-3.8-1.5s-1.4-2.4-1.4-4.1c0-1.8,0.4-3.2,1.3-4.2s2-1.6,3.5-1.6c1.4,0,2.5,0.5,3.3,1.4
		c0.8,0.9,1.2,2.1,1.2,3.6v1h-7.5c0,1.3,0.4,2.3,1,2.9c0.6,0.7,1.5,1,2.6,1c1.2,0,2.3-0.2,3.5-0.7v1.5c-0.6,0.3-1.1,0.4-1.7,0.5
		C96.4,21.4,95.8,21.4,95,21.4z M94.6,11.5c-0.9,0-1.6,0.3-2.1,0.9c-0.5,0.6-0.8,1.4-0.9,2.4h5.7c0-1-0.2-1.8-0.7-2.4
		C96.1,11.8,95.5,11.5,94.6,11.5z"/>
</g>
</svg>
