<?xml version="1.0" encoding="utf-8"?>
<!-- Generator: Adobe Illustrator 21.0.0, SVG Export Plug-In . SVG Version: 6.00 Build 0)  -->
<svg version="1.1" id="Layer_1" xmlns="http://www.w3.org/2000/svg" xmlns:xlink="http://www.w3.org/1999/xlink" x="0px" y="0px"
	 viewBox="0 0 200 14" style="enable-background:new 0 0 200 14;" xml:space="preserve">
<path d="M-6,8C-2.7,7.6,0.5,7,3.8,7C10.9,6.9,18,7.1,25.2,7.2C26.5,7.2,28,7.5,29,6c0.1-0.2,1.1-0.1,1.4,0.2c1.5,1.1,2.8,1.5,4-0.4
	c0.1-0.2,0.3-0.4,0.5-0.5c0.7-0.3,1.3-0.5,2-0.6c0.1,0,0.3,0.4,0.5,0.6C37,5.6,36.4,6,35.9,6.4c-0.1,0.1-0.1,0.2-0.3,0.5
	C36,6.9,36.3,7,36.6,7c1-0.3,2.1-0.5,3-0.9c4.4-2,9-2.7,13.8-2.5c2.7,0.1,5.3,0.1,8,0c3.8-0.2,7.3,0.4,10.5,2.4
	c0.5,0.3,1,0.5,1.3,0.6c0.9-1,1.7-2.1,2.6-2.8c0.4-0.3,1.4-0.1,1.9,0.3c1.1,0.8,1.4,1.8,0.5,3.5c-0.3-0.7-0.4-1-0.5-1.3
	c-0.2-0.9-0.8-1.6-1.7-1.1c-0.5,0.3-0.9,1.5-0.7,2C76.1,9,78,9.4,79.9,9.7c1.5,0.2,2.8-0.2,3.5-1.7c-0.1-0.2-0.2-0.3-0.3-0.3
	c-1.2,0.1-2.2-0.2-2.3-1.5c0-0.6,0.6-1.8,1-1.9c1-0.2,2.3-0.1,3,0.4c0.8,0.7,1,2,1.5,3.2c0.9-0.7,1.9-1.5,2.9-2.2
	c2.9-2,5.8-3.4,9.3-1.2c0.4,0.2,1.2,0.2,1.6-0.1c2.9-1.9,5.6-0.8,8.2,0.7c1.3,0.8,2.5,1.7,3.9,2.8c0.1-0.9,0.1-1.5,0.4-1.9
	c0.5-0.8,1.1-1.8,1.9-2c0.8-0.2,1.9,0.3,2.6,0.8c0.4,0.3,0.6,1.6,0.3,1.8c-0.7,0.5-1.7,0.7-2.8,1.1c-0.1,1,0.9,1.6,1.9,2
	c1.9,0.7,4.9-0.1,6.1-1.7c0.3-0.4,0.6-1.1,0.5-1.7c0-0.5-0.5-0.9-0.9-1.3c-0.1-0.1-0.6,0.4-1,0.6c-0.4,0.2-0.8,0.3-1.2,0.5
	c0.1-0.5-0.1-1.3,0.2-1.4c0.7-0.4,1.6-0.9,2.3-0.8c0.7,0.1,1.3,0.9,1.8,1.5c0.3,0.4,0.3,1,0.4,1.6c2.7-0.9,5.1-2.2,7.7-2.7
	c8.8-1.7,17.4-0.4,25.8,2.4c1.5,0.5,3.1,0.8,4.9,1.2c-0.5-2.8-2.4-1.7-3.7-2c1.3-1.4,3.5-1.3,4.6,0.4c0.9,1.5,1.8,1.3,3,0.5
	c0.6-0.4,1.4-0.6,2-0.5c2.6,0.2,5.1,0.9,7.7,0.9C185,7.2,193.2,7,201.5,7c0.8,0,1.7,0.2,2.5,0.3c0,0.4,0,0.7,0,1.1
	c-5.4,0-10.8,0-16.2,0c-4.9,0-9.8,0-14.7,0c-1.1,0-2.3,0.2-3.2,0.7c-1.3,0.8-2.3,0.8-3.4-0.1c-1-0.7-1.8-0.8-2.8,0.1
	c-2,1.8-4.5,1.8-6.9,1.2c-1.6-0.4-3.1-1.2-4.7-1.8c-1.1-0.4-2.3-0.9-3.5-1.4c-0.3,1.8,0.6,3.9-1.8,4.3c-0.5,0.1-1.5-0.4-1.8-0.9
	c-1-1.6,0.1-2.7,1.2-3.6c-1.9-2.5-5.6-2.5-8.3-0.3c0.9,0.7,1.9,1.4,2.8,2.2c0.3,0.3,0.2,1.1,0,1.6c-0.5,1.3-2,1.5-4,0.4
	c0.7-0.2,1.2-0.2,1.5-0.4c0.5-0.3,0.9-0.6,1.3-1c-0.4-0.5-0.8-1.3-1.3-1.3c-1.1,0-2.2,0.3-3.2,0.6c-3.7,1-7.3,2.2-11,3.2
	c-4.8,1.2-9-0.3-12.8-3.4c-0.5-0.4-1-0.7-1.2-0.9c-0.4,1.1-0.5,2.7-1.2,3.2c-1,0.7-2.6,0.8-4,0.7c-1.6-0.2-3.1-1.2-4.7,0.1
	c-0.2,0.2-0.8,0.1-1.1,0c-1.7-1.1-3.2-0.4-4.9,0.1c-1.1,0.3-2.5,0.2-3.5-0.3c-1.2-0.5-1.7-1.9-1.1-3.2c0.2-0.5,1.1-1,1.7-1
	c0.4,0,0.8,0.9,1.1,1.4c0.2,0.3,0,0.8,0,1.2c0.2,0.1,0.3,0.2,0.5,0.4c0.8-0.7,1.6-1.5,2.4-2.2c0.8-0.8,1.6-1.6,2.5-2.4
	c-0.8-1.1-3-1.7-4.9-0.7c-1.6,0.8-3,2-4.5,2.9c-2.2,1.4-4.3,2.9-6.7,3.9c-2.9,1.2-6,0.5-8.9-0.4c-3.5-1-7-2.2-10.5-3.2
	c-2-0.6-2.9,0.2-3.3,2.3c0.8-0.1,1.6-0.2,2.3-0.3c0.1,0.1,0.2,0.3,0.4,0.4c-0.5,0.4-1,1.1-1.6,1.3c-1.2,0.3-2.4-0.3-2.6-1.5
	C57,7.8,59.4,7.8,61,7c-2.2-1.9-5.2-2.2-7.3-0.5c-0.4,0.3-0.4,1.2-0.5,1.8c0,0.4,0.3,0.8,0.4,1.2c0.2,1.3-0.5,2.4-1.8,2.3
	c-0.7,0-1.6-1-1.9-1.8c-0.3-0.7,0.1-1.6,0.3-3c-1.4,0.4-2.7,0.7-3.9,1.1c-2.6,0.8-5.1,1.8-7.7,2.5c-1.8,0.5-3.4,0-4.6-1.6
	c-0.3-0.4-1.2-0.6-1.7-0.5c-1,0.3-2,1-3.1,1.6c-1-1.7-2.7-1.5-4.3-1.5c-9.2,0-18.4,0-27.5,0c-1.1,0-2.2-0.2-3.3-0.3
	C-6,8.2-6,8.1-6,8z M81.3,10.5c-2.6,0.6-4.5-0.8-6.6-1.8c-2.5-1.2-5.1-2.6-7.8-3.4c-1.9-0.6-4.1-0.6-6.1-0.8c0,0.2,0,0.4-0.1,0.6
	c1.6,0.6,3.2,1.2,4.8,1.9c3.1,1.2,6.2,2.6,9.3,3.7C76.9,11.4,79.1,11.5,81.3,10.5z M137.4,5c-6.6-0.8-11.6,3.1-17,5.9
	C126.8,11.1,131.8,7.3,137.4,5z M35.2,8.4c0.8,0.4,1.2,0.8,1.6,0.7c1.7-0.2,3.5-0.3,5.2-0.9c2.9-1,5.7-2.4,8.9-1.8
	c1.1,0.2,2.2-0.3,2.7-1.6C47.1,3.9,41.6,6.9,35.2,8.4z M147,4.4c-0.2,0.3-0.4,0.6-0.5,1c0.7,0.4,1.4,0.8,2.1,1.1
	c0.8,0.2,1.7,0.2,2.5,0.4c2.4,0.7,4.7,1.6,7,2.4c2,0.6,3,0.5,4.4-0.7C157.2,7.1,152.1,5.8,147,4.4z M109,7.2
	c-3.7-3.1-6.7-3.5-8.1-1.4c1.8,1.5,3.6,2.9,5.5,4.4c0.2-0.1,0.3-0.1,0.5-0.2C106.7,8.4,106.6,6.9,109,7.2z"/>
</svg>
