<?xml version="1.0" encoding="utf-8"?>
<!-- Generator: Adobe Illustrator 21.0.0, SVG Export Plug-In . SVG Version: 6.00 Build 0)  -->
<svg version="1.1" id="Layer_1" xmlns="http://www.w3.org/2000/svg" xmlns:xlink="http://www.w3.org/1999/xlink" x="0px" y="0px"
	 viewBox="0 0 100 10" style="enable-background:new 0 0 100 10;" xml:space="preserve">
<g>
	<path d="M5.8,6.1C5.9,5.9,6,5.8,6.1,5.8c0.2-0.1,0.5-0.1,0.6-0.1c0.3,0,0.8,0,1.5,0V5.1c-0.6,0-1.3,0-1.9,0C6.2,5.1,6,4.9,5.8,4.7
		C5.6,4.4,5.2,4.2,4.8,4.3C3.6,4.4,2.5,4.5,1.4,4.5c-0.1,0-0.3,0-0.4,0c0,0,0,0.1,0,0.1c1.2,0,2.5,0.1,3.7,0.1c0,0,0,0.1,0,0.1
		C3.5,5.1,2.3,5,1,5.1c0,0,0,0.1,0,0.1c1.2,0,2.5,0.1,3.7,0.1c0,0.1,0,0.1,0,0.2C3.5,5.5,2.2,5.6,1,5.6c0,0,0,0.1,0,0.1
		c1.2,0,2.5,0.1,3.7,0.1c0,0.1,0,0.1,0,0.2C3.5,6,2.2,6,1,6c0,0,0,0.1,0,0.1c0.1,0,0.2,0,0.3,0c1.2,0.1,2.3,0.2,3.5,0.3
		C5.2,6.5,5.6,6.4,5.8,6.1z"/>
	<path d="M98.8,5.1c-0.1-0.1-0.2,0-0.3,0c-3,0-5.9,0-8.9,0c-0.4,0-0.6-0.1-0.7-0.6c-0.1-0.5-0.3-1-0.6-1.4c-0.7-0.9-1.7-1.5-2.9-1.5
		c-0.1,0-0.2,0-0.2-0.1c-0.4-0.1-0.9-0.2-1.3-0.2c-0.7,0-1.5,0-2.2,0.2c-0.9,0.3-1.9,0.4-2.7,0.9c-0.2,0.1-0.7,0.1-0.9,0
		c-0.7-0.4-1.4-0.5-2.2-0.6c-1.4-0.1-2.8,0-4.1,0.3c-0.4,0.1-0.9,0.2-1.3,0.3c-0.7,0.3-1.4,0.6-2,0.9c-0.3,0.1-0.7,0.2-1,0.4
		C66.8,4,66.4,4.3,66,4.5c-0.1,0-0.3-0.1-0.4-0.2c-0.1-0.3-0.1-0.6,0-0.8c0.1-0.9-0.9-2-1.8-2c-0.5,0-0.8,0-1.2,0
		c-0.8,0-1.2,0.5-1.1,1.3c0,0.2,0.2,0.5,0.4,0.6c0.2,0.1,0.5,0,0.7-0.1c0.2-0.1,0.4-0.3,0.5-0.5c0.5-0.5,0.9-0.4,1.4,0
		c0.5,0.4,0.3,1,0.3,1.4c0,0.7-0.4,1-1.1,0.9c-0.2,0-0.4,0-0.6,0c-2.4,0-4.8,0-7.2,0c-0.7,0-0.7,0-0.7,0.7c-0.1-0.1-0.4-0.3-0.4-0.5
		c0-0.7,0.5-1.5,1.1-1.8c0.5-0.2,1.2,0.2,1.4,0.7c0.1,0.3,0.4,0.6,0.7,0.4c0.2-0.1,0.5-0.3,0.6-0.6c0.2-0.8-0.4-1.5-1.2-1.5
		c-0.6,0-1.3-0.1-1.9,0.2c-0.2,0.1-0.6,0.1-0.8,0.4C54.3,3.6,54,4,54,4.6c0,0.2,0.1,0.5-0.3,0.5c-0.6,0-1.2,0-1.8-0.1
		c-0.2,0-0.4,0-0.5-0.4c0-0.3-0.2-0.5-0.3-0.7c-0.3-0.6-0.6-1.2-1-1.8c-0.2,0-0.6,0-0.7,0.1c-0.4,0.6-0.7,1.2-0.9,1.8
		c-0.3,0.7-0.3,0.7-1.1,0.8c-0.4,0-0.9-0.1-1.3,0.1c-0.4,0.2-0.5,0.1-0.5-0.3c0-1.2-1.1-2.2-2.2-2.1c-0.4,0-0.7,0-1.1,0
		c-0.4,0-0.7,0.1-1,0.4C41,3.2,40.8,4,41,4.1c0.2,0.2,0.6,0.1,0.9,0.2c0.1,0,0.2,0,0.3,0c0.1-0.5,0.5-0.8,0.9-0.9
		c0.9-0.2,1.8,1.3,1.7,1.9c0,0.1,0,0.1-0.1,0.2c-0.3,0.6-0.5,1.4-1.3,1.5c-0.5,0.8-1.5,0.4-2.3,0.6c-0.6,0.1-1.4-0.1-2.1-0.2
		c-0.4-0.1-0.7-0.2-1-0.3C37.7,7,37.3,6.8,37,6.6c-0.2-0.2-0.4-0.4-0.5-0.6c0.2-0.1,0.4-0.2,0.7-0.2c2.3,0,4.6,0,6.9,0
		c0.3,0,0.5,0,0.5-0.4c0-0.4-0.1-0.5-0.5-0.5c-2.5,0-5,0-7.5,0c-0.2,0-0.4,0.1-0.4,0.3c-0.2,0.2-0.2,0.3-0.5,0.1
		c-0.7-0.5-0.7-1.3-0.5-2c0.1-0.3,0.5-0.7,0.8-0.8c0.1-0.1,0.6,0.1,0.7,0.3c0.5,0.6,1,0.7,1.6,0.4c0.2-0.8-0.6-1.5-1.5-1.5
		c-0.5-0.1-0.2,0-0.7-0.1c-0.5,0-1.3,0.3-1.4,0.6c-0.2,0.4-0.4,0.8-0.5,1.2c-0.1,0.3,0,0.6,0,0.9c0,0.3-0.1,0.4-0.4,0.2
		c-0.7-0.4-1.3-0.8-2-1.1c-0.2-0.1-0.5-0.2-0.7-0.3C30.4,3,30,2.9,29.6,2.7c-0.3-0.1-0.6-0.2-0.9-0.3c-0.5-0.2-2.1-0.6-2.6-0.6
		c-1.4-0.1-1.5-0.1-2.9,0c-0.4,0-1.2,0.3-1.5,0.5c-0.4,0.3-0.7,0.2-1,0c-0.6-0.2-1.2-0.6-1.8-0.7c-1-0.1-2.1-0.4-3.2-0.4
		c-0.8,0-1.6,0-2.2,0.4c-0.7,0.4-1.5,0.5-2,1.3c-0.4,0.6-0.7,1-0.7,1.7c0,0.3-0.2,0.4-0.5,0.4C9.3,5,8.4,5.1,7.5,5.1
		c-0.1,0-0.2,0-0.4,0v0.5c1.1,0,2.1,0.1,3.2,0.1c0.1,0,0.3,0.1,0.3,0.1c0.1,0.2,0.2,0.5,0.3,0.8c0.3,0.8,1,1.3,1.7,1.4
		c0.8,0.1,1.7,0.3,2.4-0.3c0.5-0.3,1-0.6,1-1.3c0-0.7,0-1.4,0-2c0-0.1,0-0.2-0.1-0.3c-0.4-0.3-0.8-0.6-1.2-0.8
		c-0.2-0.1-0.5-0.1-0.8,0c-0.3,0.1-0.5,0.4-0.4,0.9c0.1,0.4,0.4,0.3,0.6,0.3c0.2,0,0.4,0,0.5,0.1c0.3,0.1,0.6,0.3,0.7,0.6
		c0.3,1.1-0.7,2.3-1.8,2.2c-0.5-0.1-1-0.3-1.5-0.6c-0.2-0.1-0.3-0.5-0.4-0.8c0,0,0.2-0.2,0.3-0.2c0.4,0,0.8,0,1.2,0
		c0.6,0,1.1,0,1.7,0c0.1-0.7,0-0.7-0.5-0.7c-0.7,0-1.5,0-2.2,0c-0.4,0-0.6-0.2-0.5-0.5c0.1-0.4,0.3-0.8,0.5-1.1
		c0.3-0.3,0.6-0.5,1-0.7c0.7-0.6,1.6-0.6,2.4-0.7c0.8-0.1,1.6,0.1,2.4,0.2c0.1,0,0.2,0.1,0.3,0.1c0.4,0.1,0.8,0.3,1.3,0.4
		c0.6,0.1,0.8,0.4,0.5,1c-0.1,0.3-0.3,0.6-0.3,0.9c0,0.4-0.2,0.4-0.5,0.4c-0.7,0-1.5,0-2.2,0c-0.3,0-0.5,0-0.5,0.4
		c0,0.4,0.2,0.3,0.5,0.3c0.7,0,1.4,0,2,0c0.3,0,0.4,0.1,0.5,0.4c0.1,0.4,0.2,0.9,0.3,1.3c0.1,0.3,0.3,0.7,0.6,0.9
		C21,8.6,21.7,8.8,22.3,9c0.5,0.1,1.1,0,1.6-0.3c0.6-0.3,1.3-1.6,1-2.3c0-0.1-0.1-0.1-0.1-0.1c-0.3,0-0.7-0.1-1,0
		c-0.3,0.1-0.4,0.4-0.4,0.7c0,0.9-1,1.5-1.8,1c-0.8-0.5-1.3-1.2-1.3-2.3c0.9,0,1.8,0,2.7,0c0.3,0,0.5,0,0.5-0.4
		c0-0.4-0.3-0.4-0.5-0.4c-0.5,0-1,0-1.5,0c-0.3,0-0.8,0-0.9-0.2C20.3,4.5,20.8,4.3,21,4c0.3-0.4,0.7-0.4,1.1-0.1
		c0.3,0.2,0.5,0.3,0.8,0.4c0.6,0.2,1.1,0.4,1.7,0.7c0.6,0.3,1.3,0.5,1.9,0.8c0.2,0.1,0.4,0.2,0.6,0.3c0.4,0.1,0.9,0.2,1.3,0.4
		c0.6,0.3,1.2,0.2,1.7,0.3c0.3,0.1,0.4-0.2,0.2-0.4c-0.1-0.1-0.3-0.2-0.5-0.3C29.7,6,29.4,6,29.2,5.9c-0.4-0.1-0.8-0.3-1.2-0.5
		c-0.7-0.2-1.4-0.4-2-0.7c-0.9-0.4-1.8-0.9-2.6-1.4C23.2,3.3,23,3.2,22.8,3C23,3,23.2,2.9,23.4,2.8c0.9-0.5,1.7,0,2.4,0.2
		c0.6,0.1,1.2,0.5,1.8,0.7c0.5,0.2,1,0.4,1.5,0.7c0.5,0.2,1,0.5,1.5,0.8c0.5,0.3,1,0.5,1.5,0.8c0.6,0.3,1.2,0.7,1.8,1
		c0.3,0.2,0.7,0.2,1,0.4c0.7,0.4,1.4,0.7,2.2,0.8c0.1,0,0.3,0.1,0.4,0.1c0.7,0.2,1.3,0.4,2,0.5c1.3,0.1,2.7,0.1,3.9-0.6
		C43.8,8,44,7.7,44.3,7.6c0.6-0.2,0.7-0.7,1-1.1c0.2-0.4,0.4-0.8,1-0.7c0.4,0,0.8,0.1,1.2,0c0.4-0.1,0.7,0.2,0.9,0.5
		c0.1,0.2,0.3,0.5,0.4,0.7c0.1,0.3,0.2,0.7,0.3,1c0.1,0.2,0.4,0.4,0.6,0.5c0.2,0.1,0.7-0.2,0.8-0.4c0.3-0.6,0.4-1,0.7-1.6
		c0.3-0.8,0.3-0.8,1.1-0.8c0.4,0,0.7,0,1.1,0c0.4,0,0.8-0.1,0.7,0.5c0,0,0,0.1,0.1,0.1c0.5,0.4,0.7,1,1.3,1.3c0.9,0.5,1.8,1,2.8,1
		c0.7,0,1.3,0,2,0c0.1,0,0.2,0,0.4,0c0.7-0.2,1.3-0.4,2-0.5c0.3-0.1,0.6,0,0.9-0.3c0.2-0.2,0.5-0.2,0.8-0.3c0.4-0.1,0.7-0.2,1.1-0.4
		c0.9-0.4,1.7-0.9,2.6-1.4c0.7-0.4,1.3-0.8,2-1.1c0.5-0.2,1-0.5,1.5-0.7c0.5-0.2,1.1-0.4,1.6-0.6c0.4-0.2,0.9-0.4,1.3-0.5
		c0.7-0.1,1.5-0.3,2.2,0c0.1,0,0.3,0.1,0.3,0.2c0,0.1-0.1,0.2-0.2,0.3c-0.9,0.4-1.8,0.8-2.7,1.2C72.9,5,72,5.4,71.1,5.7
		c-0.6,0.2-1.2,0.4-1.8,0.5C69,6.3,68.9,6.4,69,6.7c0.1,0.1,0.3,0.3,0.4,0.3c0.5-0.1,1-0.2,1.6-0.4c0.4-0.1,0.8-0.3,1.2-0.5
		c0.9-0.3,1.9-0.6,2.8-0.9c0.7-0.3,1.4-0.7,2-1.1c0.3-0.2,0.7-0.3,1-0.3c0.1,0,0.3,0.1,0.4,0.2c0.2,0.2,0.3,0.5,0.4,0.7
		C79,4.7,79,4.8,79.1,4.9C78.9,5,78.8,5,78.7,5c-0.8,0-1.5,0-2.3,0c-0.3,0-0.5,0-0.5,0.4c0,0.4,0.3,0.3,0.5,0.3c0.8,0,1.7,0,2.5,0
		c0.2,0,0.5,0,0.4,0.3c-0.2,0.7-0.6,1.4-1.2,1.9c-0.4,0.3-1.3,0.3-1.6-0.2c-0.2-0.3-0.4-0.7-0.5-1.1c-0.1-0.4-0.3-0.5-0.7-0.5
		c-0.3,0-0.7,0-0.8,0.5c-0.1,1.1,0.6,2.1,1.7,2.3c1,0.2,2.1,0,2.8-0.7C79.7,7.8,80,7.2,80,6.4c0-0.4,0.2-0.6,0.6-0.6
		c0.7,0,1.3,0,2,0c0.4,0,0.5-0.2,0.4-0.5c-0.1-0.1-0.3-0.2-0.5-0.2c-0.7,0-1.5,0-2.2,0c-0.3,0-0.4-0.1-0.5-0.4
		c0-0.3-0.2-0.6-0.3-0.9c-0.2-0.4,0-0.9,0.5-0.9c0.1,0,0.2,0,0.3-0.1c0.6-0.2,1.1-0.4,1.7-0.5c0.4-0.1,0.8-0.1,1.2-0.2
		c0.2,0,0.4,0,0.6,0c0.4,0,0.7,0.1,1.1,0.2c0.8,0.1,1.5,0.4,2.1,0.9c0.3,0.3,0.6,0.7,0.8,1.1C88.1,4.5,88,5,87.7,5c-1,0-2,0-3-0.1
		c0,0.1,0,0.2,0,0.3c-0.1,0.4,0.1,0.6,0.5,0.5c0.8,0,1.6,0,2.4,0c0.1,0,0.3,0.1,0.3,0.2s-0.1,0.2-0.1,0.3c-0.1,0.1-0.1,0.3-0.2,0.4
		c-0.3,0.2-0.5,0.4-0.8,0.5c-0.1,0.1-0.3,0.1-0.4,0.1c-0.3,0-0.5,0.1-0.8,0.1c-0.9-0.4-0.9-0.5-1.3-0.9c-0.1-0.3-0.2-1.1-0.1-1.5
		c0.1-0.1,0-0.1,0.1-0.2c0.2-0.4,0.9-0.2,1.2-0.2c0.4,0,0.5-0.2,0.5-0.5c0-0.3-0.1-0.5-0.4-0.5c-1-0.1-2,0.4-2.1,1.5
		c-0.1,1.1,0,2,1,2.7C84.6,7.9,84.7,8,85,8.1c0.6,0.2,1.6,0.2,2.4-0.3c0.8-0.4,1.2-1,1.4-1.7c0.1-0.3,0.2-0.4,0.5-0.4
		c1.2,0,2.5,0,3.7,0c0.1,0,0.3,0.1,0.4,0.2c0.3,0.3,0.6,0.4,1,0.4c0.5,0,1.1,0.1,1.6,0C97,6.2,97.9,6,98.8,5.8
		c0.1,0,0.2-0.2,0.2-0.4C99,5.3,98.9,5.1,98.8,5.1z M63,6.3c-0.4,0.2-0.8,0.4-1.1,0.6c-0.1,0.1-0.2,0.2-0.4,0.3c-1,0.2-2,0.5-3,0.5
		c-1.3,0-2.5-0.3-3.3-1.5c-0.1-0.1,0-0.3,0-0.5c2.4,0,4.9,0,7.3,0c0.1,0,0.3,0,0.4,0c0.1,0,0.3,0.1,0.3,0.2C63.2,6,63.1,6.2,63,6.3z
		"/>
</g>
</svg>
